<svg xmlns="http://www.w3.org/2000/svg" width="555" height="124.76" viewBox="0 0 555 124.76"><title>ïsme-人生は、芸術か。</title><g><path d="M12.45 24.89a11.74 11.74 0 0 1-9.09-3.89 12.65 12.65 0 0 1 0-17.17 11.75 11.75 0 0 1 9.09-3.83 11.74 11.74 0 0 1 9.08 3.86 12.62 12.62 0 0 1 0 17.17 11.73 11.73 0 0 1-9.08 3.86zm0-18.77a5.67 5.67 0 0 0-4.54 1.88 6.51 6.51 0 0 0 0 9 5.67 5.67 0 0 0 4.54 1.85 5.69 5.69 0 0 0 4.55-1.92 6.51 6.51 0 0 0 0-9 5.72 5.72 0 0 0-4.55-1.81zM42.63 24.89a11.7 11.7 0 0 1-9.08-3.89 12.62 12.62 0 0 1 0-17.17 11.71 11.71 0 0 1 9.08-3.83 11.73 11.73 0 0 1 9.08 3.86 12.62 12.62 0 0 1 0 17.17 11.71 11.71 0 0 1-9.08 3.86zm0-18.77a5.67 5.67 0 0 0-4.54 1.88 6.51 6.51 0 0 0 0 9 5.68 5.68 0 0 0 4.54 1.85 5.69 5.69 0 0 0 4.54-1.85 6.51 6.51 0 0 0 0-9 5.72 5.72 0 0 0-4.54-1.88zM403.35 122.55h-25.51v-54.18c0-7.82-1.39-14.05-4.11-18.51-1.36-2.22-4.05-5.17-11.67-5.17a16.12 16.12 0 0 0-8.21 1.86 15.5 15.5 0 0 0-5.35 5.14 26.13 26.13 0 0 0-3.29 8.17 47.12 47.12 0 0 0-1.13 10.36v52.33h-25.52v-56.75a59.35 59.35 0 0 0-.81-10.27 17.68 17.68 0 0 0-2.3-6.38 8.55 8.55 0 0 0-3.68-3.15 17.85 17.85 0 0 0-7.51-1.29 15.41 15.41 0 0 0-6.26 1.43 17.09 17.09 0 0 0-5.85 4.49 25.52 25.52 0 0 0-4.57 8.37 39.51 39.51 0 0 0-1.85 12.87v50.68h-25.52v-73.69c0-2.22-.06-5.1-.18-8.8-.09-2.63-.31-5.05-.52-7.39-.07-.74-.13-1.46-.19-2.15l-.95-7.12h25.42l.55 5.21c.84-.62 1.72-1.2 2.62-1.76a38.45 38.45 0 0 1 20.43-5.65 44.55 44.55 0 0 1 8.51.85 29.93 29.93 0 0 1 9.43 3.63 33.76 33.76 0 0 1 8.23 7c.28.32.57.66.84 1a37.51 37.51 0 0 1 8.15-6.8 40.51 40.51 0 0 1 21.54-5.65c12.88 0 22.82 4.06 29.55 12.07 6.44 7.68 9.71 17.76 9.71 29.95zm-19.35-6.12h13.28v-53.21c0-10.71-2.78-19.47-8.28-26s-13.88-9.89-24.86-9.89a34.45 34.45 0 0 0-18.33 4.75 31.54 31.54 0 0 0-9.07 8.49l-2.74 3.74-2.39-4a26.27 26.27 0 0 0-2.65-3.69 27.48 27.48 0 0 0-6.72-5.7 23.66 23.66 0 0 0-7.49-2.89 38 38 0 0 0-7.34-.75 32.41 32.41 0 0 0-23.41 9.72l-4.82 4.94-.44-6.94c-.11-1.86-.26-3.59-.42-5.16v-.34h-12.96l.05.41c.06.71.12 1.43.19 2.19.21 2.31.45 4.93.55 7.73.12 3.77.18 6.72.18 9v67.57h13.28v-44.53a45.7 45.7 0 0 1 2.19-14.87 31.55 31.55 0 0 1 5.72-10.36 23.12 23.12 0 0 1 8-6.07 21.45 21.45 0 0 1 8.77-2 23.85 23.85 0 0 1 10.15 1.89 14.63 14.63 0 0 1 6.19 5.38 23.72 23.72 0 0 1 3.17 8.61 64.85 64.85 0 0 1 .91 11.35v50.63h13.29v-46.21a53.1 53.1 0 0 1 1.28-11.7 32 32 0 0 1 4.09-10.1 21.42 21.42 0 0 1 7.42-7.14 22 22 0 0 1 11.31-2.71c7.92 0 13.6 2.72 16.89 8.1s5 12.74 5 21.7zM506.46 124.76a56.65 56.65 0 0 1-21.06-3.89 50.25 50.25 0 0 1-16.92-10.93 51.35 51.35 0 0 1-15.18-36.94 53 53 0 0 1 3.95-20.5 50.32 50.32 0 0 1 11-16.47 51.08 51.08 0 0 1 16.56-10.9 53.35 53.35 0 0 1 20.49-3.93 54.59 54.59 0 0 1 21.28 3.93 45.24 45.24 0 0 1 15.74 10.81 45.83 45.83 0 0 1 9.52 15.73 55.42 55.42 0 0 1 3.16 18.73v2.76a35.5 35.5 0 0 1-.23 3.85l-.66 5.78h-72.83a25.27 25.27 0 0 0 1.12 3.09 24.24 24.24 0 0 0 5.46 7.86 27 27 0 0 0 8.33 5.38 29 29 0 0 0 24.33-1.56 28.31 28.31 0 0 0 9.15-8.38l3.6-5.52 15.88 15.23 2.72 3.28-1.61 2c-6 7.28-12.83 12.61-20.24 15.84a58.67 58.67 0 0 1-23.56 4.75zm-1.16-97.45a47.35 47.35 0 0 0-18.12 3.46 45.13 45.13 0 0 0-14.59 9.59 44 44 0 0 0-9.69 14.48 46.8 46.8 0 0 0-3.48 18.16 45.3 45.3 0 0 0 13.36 32.61 44.35 44.35 0 0 0 14.89 9.6 50.55 50.55 0 0 0 18.79 3.45 52.39 52.39 0 0 0 21.11-4.29 47.51 47.51 0 0 0 16.24-12.13l-9.45-9a34.71 34.71 0 0 1-10.66 9.61 35 35 0 0 1-29.86 2 33.1 33.1 0 0 1-10.22-6.62 30.19 30.19 0 0 1-6.82-9.82 31.46 31.46 0 0 1-2.33-8.16l-.51-3.5h74.69v-.35a27.91 27.91 0 0 0 .19-3.16v-2.84a49 49 0 0 0-2.8-16.65 39.85 39.85 0 0 0-8.24-13.65 39.14 39.14 0 0 0-13.64-9.33 48.53 48.53 0 0 0-18.86-3.46zm29.41 38.69h-60.62l.83-3.73a28.39 28.39 0 0 1 2.26-6.36 30.87 30.87 0 0 1 6.64-8.91 31.58 31.58 0 0 1 9.63-6.15 31 31 0 0 1 11.85-2.25c9.26 0 16.18 2.56 21.18 7.83a28.79 28.79 0 0 1 7.7 16.05zm-52.62-6.12h45.27a22.35 22.35 0 0 0-5.36-9.27c-3.78-4-9.25-5.92-16.74-5.92a24.89 24.89 0 0 0-9.51 1.78 25.43 25.43 0 0 0-7.79 5 24.82 24.82 0 0 0-5.34 7.15c-.16.38-.36.81-.53 1.23zM158.72 124.76a53.39 53.39 0 0 1-21.58-4.6 41.59 41.59 0 0 1-17.7-14.79l-1.44-2.05 18.31-19.13 3.89 6.69a20.69 20.69 0 0 0 7.47 7.26 20.47 20.47 0 0 0 10.84 2.94 32.54 32.54 0 0 0 6.45-.61 11.3 11.3 0 0 0 4.11-1.61 7.38 7.38 0 0 0 2.4-2.54 7.88 7.88 0 0 0 .78-3.83c0-1.82-.49-3.13-3-4.46-3.86-2-9.7-4-17.37-5.79-2.71-.64-5.62-1.46-8.66-2.43a34.69 34.69 0 0 1-9.84-5 28.35 28.35 0 0 1-7.86-8.68 26.07 26.07 0 0 1-3.29-13.42 29.59 29.59 0 0 1 3.38-14.45 29.13 29.13 0 0 1 8.86-9.92 37.4 37.4 0 0 1 11.91-5.47 51 51 0 0 1 13.09-1.69 46.77 46.77 0 0 1 20.29 4.68 34.84 34.84 0 0 1 15.16 13.43l1.21 2-18.2 19-3.62-7a15.49 15.49 0 0 0-6-6.17 17.6 17.6 0 0 0-9.42-2.46 24.06 24.06 0 0 0-5.22.58 11.69 11.69 0 0 0-3.78 1.51 6.5 6.5 0 0 0-2.1 2.14 5.09 5.09 0 0 0-.62 2.7 4 4 0 0 0 2 3.84c1.8 1.17 5.59 2.9 13.43 4.53 11.33 2.32 19.63 5.74 25.36 10.45 6.4 5.27 9.65 12.38 9.65 21.13a30.28 30.28 0 0 1-13.09 26 36.75 36.75 0 0 1-12.62 5.6 57.22 57.22 0 0 1-13.18 1.62zm-32.72-20.86a35.12 35.12 0 0 0 13.66 10.66 47.21 47.21 0 0 0 19.11 4.08 51.11 51.11 0 0 0 11.78-1.39 30.86 30.86 0 0 0 10.45-4.66 24.19 24.19 0 0 0 10.47-21c0-6.84-2.5-12.35-7.41-16.4s-12.34-7.09-22.68-9.19c-7.15-1.48-12.22-3.24-15.53-5.38a10.09 10.09 0 0 1-4.79-9 10.94 10.94 0 0 1 1.51-5.87 12.56 12.56 0 0 1 4-4.12 17.79 17.79 0 0 1 5.77-2.33 29.87 29.87 0 0 1 6.54-.73 23.56 23.56 0 0 1 12.6 3.35 21.49 21.49 0 0 1 7.91 8l9-9.38a29.47 29.47 0 0 0-11.28-9.14 40.75 40.75 0 0 0-17.65-4.09 44.6 44.6 0 0 0-11.52 1.49 31.41 31.41 0 0 0-10 4.56 23.16 23.16 0 0 0-7 7.86 23.7 23.7 0 0 0-2.63 11.51 20.07 20.07 0 0 0 2.47 10.27 22.31 22.31 0 0 0 6.22 6.88 28.68 28.68 0 0 0 8.11 4.1c2.89.93 5.66 1.7 8.22 2.31 8.16 1.95 14.47 4.08 18.78 6.32s6.33 5.45 6.33 9.88a13.6 13.6 0 0 1-1.61 6.9 13.4 13.4 0 0 1-4.3 4.56 17.19 17.19 0 0 1-6.3 2.52 38.56 38.56 0 0 1-7.65.73 26.44 26.44 0 0 1-14-3.81 26.9 26.9 0 0 1-9.42-9.09zM40.11 122.55h-25.51v-76.61l25.51-26.65zm-19.39-6.12h13.28v-81.9l-13.28 13.86z"/></g></svg>